<svg xmlns="http://www.w3.org/2000/svg" viewBox="23 303 859 648">
<defs><linearGradient id="ouro" x1="0" y1="0" x2="1" y2="1"><stop offset="0" stop-color="#8f6a22"/><stop offset=".28" stop-color="#d9b45e"/><stop offset=".5" stop-color="#f3dd98"/><stop offset=".72" stop-color="#c29a48"/><stop offset="1" stop-color="#9a7429"/></linearGradient>
<mask id="folga" maskUnits="userSpaceOnUse" x="0" y="0" width="1200" height="1200">
  <rect x="0" y="0" width="1200" height="1200" fill="#fff"/>
  <rect x="0" y="0" width="309" height="521" fill="#000"/>
  <path d="M51.5 821.8L50.0 820.0L48.6 818.1L47.3 816.3L46.1 814.5L44.9 812.6L43.9 810.8L42.9 809.0L42.1 807.2L41.3 805.4L40.6 803.6L40.0 801.8L39.4 800.0L39.0 798.2L38.6 796.5L38.3 794.7L38.1 793.0L38.0 791.3L37.9 789.6L38.0 787.9L38.1 786.3L38.2 784.6L38.4 783.0L38.6 781.4L38.9 779.8L39.2 778.3L39.6 776.7L40.1 775.2L40.6 773.7L41.2 772.2L41.8 770.7L42.4 769.2L43.1 767.8L43.9 766.4L44.7 764.9L45.6 763.5L46.5 762.1L47.4 760.8L48.4 759.4L49.4 758.1L50.5 756.8L51.6 755.4L52.7 754.1L53.9 752.9L55.1 751.6L56.4 750.4L57.6 749.1L59.0 747.9L60.3 746.7L61.7 745.5L63.1 744.4L64.6 743.2L66.0 742.1L67.5 741.0L69.0 739.9L70.6 738.8L72.2 737.8L73.8 736.8L75.4 735.7L77.0 734.8L78.7 733.8L80.4 732.8L82.1 731.9L83.8 731.0L85.5 730.1L87.3 729.3L89.1 728.4L90.8 727.6L92.6 726.8L94.4 726.0L96.2 725.3L98.0 724.6L99.9 723.9L101.7 723.2L103.5 722.5L105.4 721.9L107.2 721.3L109.0 720.8L110.9 720.2L112.7 719.7L114.5 719.2L116.4 718.7L118.2 718.3L120.0 717.9L121.8 717.5L123.7 717.2L125.5 716.9L127.3 716.6L129.1 716.3L130.8 716.0L132.6 715.8L134.4 715.6L136.2 715.4L138.0 715.3L139.7 715.2L141.5 715.1L143.3 715.0L145.0 715.0L146.8 714.9L148.5 714.9L150.3 714.9L152.0 715.0L153.8 715.0L155.5 715.1L157.3 715.2L159.0 715.3L160.7 715.5L162.5 715.6L164.2 715.8L165.9 716.0L167.7 716.2L169.4 716.5L171.1 716.8L172.8 717.0L174.5 717.3L176.3 717.6L178.0 718.0L179.7 718.3L181.4 718.7L183.1 719.1L184.8 719.5L186.5 719.9L188.2 720.4L189.9 720.8L191.6 721.3L193.3 721.8L195.0 722.3L196.7 722.8L198.4 723.3L200.1 723.8L201.8 724.4L203.5 725.0L205.2 725.6L206.9 726.2L208.6 726.8L210.3 727.4L212.0 728.0L213.7 728.7L215.4 729.4L217.1 730.0L218.7 730.7L220.4 731.4L222.1 732.1L223.8 732.8L225.5 733.6L227.2 734.3L228.9 735.1L230.5 735.8L232.2 736.6L233.9 737.4L235.6 738.2L237.3 739.0L238.9 739.8L240.6 740.6L242.3 741.4L244.0 742.2L245.7 743.0L247.3 743.9L249.0 744.7L250.7 745.6L252.4 746.4L254.0 747.3L255.7 748.2L257.4 749.1L259.1 749.9L260.7 750.8L262.4 751.7L264.1 752.6L265.7 753.5L267.4 754.4L269.0 755.3L270.7 756.2L272.4 757.2L274.0 758.1L275.7 759.0L277.3 759.9L279.0 760.9L280.7 761.8L282.3 762.8L284.0 763.7L285.6 764.7L287.3 765.6L288.9 766.6L290.6 767.6L292.2 768.5L293.9 769.5L295.5 770.5L297.2 771.4L298.8 772.4L300.4 773.4L302.1 774.4L303.7 775.4L305.4 776.4L307.0 777.4L308.7 778.4L310.3 779.4L311.9 780.4L313.6 781.4L315.2 782.4L316.8 783.4L318.5 784.4L320.1 785.4L321.8 786.4L323.4 787.5L325.0 788.5L326.7 789.5L328.3 790.5L329.9 791.6L331.6 792.6L333.2 793.6L334.8 794.6L336.5 795.7L338.1 796.7L339.7 797.7L341.3 798.8L343.0 799.8L344.6 800.8L346.2 801.9L347.9 802.9L349.5 803.9L351.1 805.0L352.8 806.0L354.4 807.0L356.0 808.1L357.6 809.1L359.3 810.1L360.9 811.2L362.5 812.2L364.2 813.2L365.8 814.3L367.4 815.3L369.0 816.3L370.7 817.3L372.3 818.4L373.9 819.4L375.6 820.4L377.2 821.5L378.8 822.5L380.4 823.5L382.1 824.5L383.7 825.5L385.3 826.6L387.0 827.6L388.6 828.6L390.2 829.6L391.9 830.6L393.5 831.6L395.1 832.6L396.8 833.6L398.4 834.6L400.0 835.6L401.7 836.6L403.3 837.6L404.9 838.6L406.6 839.6L408.2 840.6L409.8 841.6L411.5 842.5L413.1 843.5L414.7 844.5L416.4 845.4L418.0 846.4L419.7 847.4L421.3 848.3L423.0 849.3L424.6 850.2L426.2 851.2L427.9 852.1L429.5 853.0L431.2 854.0L432.8 854.9L434.5 855.8L436.1 856.7L437.8 857.7L439.4 858.6L441.1 859.5L442.7 860.3L444.4 861.2L446.1 862.1L447.7 863.0L449.4 863.8L451.1 864.7L452.7 865.5L454.4 866.4L456.1 867.2L457.7 868.0L459.4 868.9L461.1 869.7L462.8 870.5L464.4 871.3L466.1 872.1L467.8 872.9L469.4 873.7L471.1 874.5L472.8 875.3L474.5 876.1L476.2 876.9L477.8 877.6L479.5 878.4L481.2 879.1L482.9 879.9L484.6 880.6L486.3 881.3L488.0 882.1L489.7 882.8L491.4 883.5L493.1 884.2L494.8 884.9L496.5 885.6L498.2 886.2L499.9 886.9L501.6 887.6L503.3 888.2L505.0 888.9L506.7 889.5L508.4 890.2L510.2 890.8L511.9 891.4L513.6 892.0L515.3 892.6L517.1 893.2L518.8 893.8L520.6 894.4L522.3 895.0L524.0 895.5L525.8 896.1L527.5 896.6L529.3 897.2L531.1 897.7L532.8 898.2L534.6 898.7L536.4 899.2L538.1 899.7L539.9 900.2L541.7 900.6L543.5 901.1L545.3 901.5L547.1 901.9L548.9 902.3L550.7 902.7L552.5 903.1L554.3 903.5L556.1 903.9L557.9 904.2L559.8 904.6L561.6 904.9L563.4 905.2L565.3 905.5L567.1 905.8L569.0 906.1L570.8 906.4L572.7 906.7L574.5 906.9L576.4 907.2L578.3 907.4L580.1 907.6L582.0 907.8L583.9 908.0L585.8 908.2L587.7 908.4L589.6 908.5L591.5 908.7L593.4 908.8L595.3 908.9L597.2 909.0L599.1 909.1L601.1 909.2L603.0 909.3L604.9 909.4L606.9 909.4L608.8 909.4L610.8 909.5L612.7 909.5L614.7 909.5L616.6 909.5L618.6 909.4L620.6 909.4L622.6 909.3L624.6 909.3L626.5 909.2L628.5 909.1L630.5 909.0L632.5 908.8L634.6 908.7L636.6 908.6L638.6 908.4L640.6 908.2L642.7 908.0L644.7 907.8L646.7 907.6L648.8 907.4L650.9 907.1L652.9 906.8L655.0 906.6L657.1 906.3L659.1 906.0L661.2 905.7L663.3 905.3L665.4 905.0L667.5 904.6L669.6 904.2L671.7 903.8L673.9 903.4L676.0 903.0L678.1 902.6L680.2 902.1L682.3 901.7L684.4 901.2L686.5 900.7L688.6 900.2L690.7 899.6L692.8 899.1L694.8 898.5L696.9 898.0L698.9 897.4L700.9 896.8L702.9 896.1L704.8 895.5L706.8 894.8L708.7 894.2L710.6 893.5L712.4 892.8L714.3 892.0L716.1 891.3L717.8 890.5L719.6 889.7L721.3 888.9L722.9 888.1L724.5 887.3L726.1 886.4L727.7 885.5L729.2 884.6L730.6 883.7L732.0 882.7L733.4 881.7L734.7 880.7L736.0 879.7L737.2 878.6L738.4 877.4L739.5 876.2L740.5 874.9L741.5 873.5L742.4 872.0L743.1 870.4L743.6 868.7L744.0 866.8L744.1 864.9L743.9 863.0L743.4 861.2L742.8 859.5L742.1 858.0L741.3 856.5L740.5 855.1L739.5 853.7L738.6 852.4L737.7 851.1L736.7 849.8L735.7 848.5L734.8 847.2L733.9 845.9L732.9 844.5L732.0 843.2L731.1 841.8L730.2 840.4L729.3 838.9L728.4 837.5L727.5 836.0L726.6 834.5L725.7 832.9L724.9 831.4L724.0 829.8L723.2 828.2L722.3 826.5L721.5 824.9L720.7 823.2L719.9 821.5L719.2 819.8L718.4 818.0L717.7 816.2L716.9 814.4L716.3 812.6L715.6 810.7L714.9 808.9L714.3 807.0L713.7 805.1L713.1 803.2L712.6 801.3L712.1 799.3L711.6 797.4L711.1 795.5L710.7 793.5L710.4 791.6L710.0 789.7L709.7 787.7L709.5 785.8L709.3 783.9L709.1 782.1L709.0 780.2L708.9 778.3L708.8 776.5L708.9 774.7L708.9 772.9L709.0 771.2L709.2 769.4L709.4 767.7L709.6 766.1L709.9 764.5L710.3 762.9L710.7 761.3L711.1 759.8L711.6 758.4L712.1 756.9L712.7 755.5L713.4 754.2L714.1 752.9L714.8 751.6L715.7 750.3L716.5 749.1L717.5 747.9L718.5 746.7L719.5 745.6L720.7 744.4L721.8 743.4L723.0 742.3L724.3 741.3L725.6 740.3L727.0 739.3L728.3 738.5L729.7 737.6L731.2 736.8L732.6 736.1L734.1 735.4L735.6 734.8L737.0 734.2L738.5 733.7L740.0 733.2L741.5 732.8L742.9 732.5L744.3 732.3L745.7 732.1L747.1 732.0L748.4 731.9L749.7 731.9L751.0 732.0L752.2 732.1L753.4 732.3L754.5 732.6L755.5 732.9L756.5 733.3L757.4 733.8L758.3 734.3L759.2 734.8L760.0 735.4L760.7 736.2L761.5 736.9L762.2 737.8L762.8 738.8L763.4 739.9L764.0 741.2L764.6 742.6L765.2 744.2L765.7 745.8L766.2 747.5L766.7 749.3L767.1 751.0L767.6 752.8L768.1 754.5L768.6 756.2L769.1 757.9L769.8 759.5L770.6 761.1L771.5 762.7L772.8 764.2L774.4 765.7L776.3 766.9L778.5 767.7L780.8 768.1L782.9 768.0L784.9 767.7L786.7 767.2L788.5 766.6L790.2 765.9L791.9 765.1L793.7 764.2L795.4 763.2L797.2 762.3L799.0 761.2L800.8 760.2L802.6 759.1L804.4 758.1L806.3 757.0L808.1 756.0L810.0 755.0L811.8 754.0L813.5 753.1L815.3 752.3L817.0 751.6L818.6 751.0L820.1 750.4L821.6 750.0L823.1 749.7L824.5 749.4L825.9 749.2L827.2 749.1L828.4 749.1L829.6 749.2L830.7 749.3L831.8 749.5L832.8 749.7L833.8 750.0L834.8 750.4L835.7 750.8L836.6 751.3L837.5 751.9L838.3 752.5L839.1 753.3L840.0 754.1L840.8 755.0L841.6 756.0L842.4 757.0L843.1 758.2L843.9 759.5L844.6 760.8L845.3 762.2L845.9 763.7L846.5 765.2L847.1 766.8L847.6 768.4L848.0 770.0L848.4 771.7L848.8 773.3L849.0 775.0L849.3 776.7L849.4 778.3L849.6 780.0L849.6 781.6L849.6 783.2L849.5 784.8L849.4 786.3L849.2 787.8L849.0 789.4L848.7 790.8L848.4 792.3L848.0 793.8L847.6 795.2L847.1 796.7L846.5 798.1L845.9 799.5L845.3 800.9L844.6 802.3L843.8 803.7L843.0 805.1L842.2 806.4L841.3 807.8L840.4 809.2L839.4 810.5L838.4 811.8L837.3 813.2L836.2 814.5L835.1 815.8L833.9 817.1L832.6 818.3L831.4 819.6L830.1 820.9L828.7 822.1L827.3 823.3L825.9 824.5L824.5 825.8L823.0 826.9L821.5 828.1L820.0 829.3L818.4 830.4L816.9 831.6L815.3 832.7L813.6 833.8L812.0 834.9L810.3 836.0L808.7 837.1L807.0 838.1L805.3 839.1L803.6 840.2L801.8 841.2L800.1 842.2L798.3 843.1L796.6 844.1L794.8 845.1L793.1 846.0L791.3 846.9L789.6 847.8L787.8 848.7L786.0 849.6L784.3 850.5L782.5 851.3L780.8 852.2L779.1 853.0L777.3 853.8L775.6 854.6L773.9 855.4L772.2 856.1L770.6 856.9L768.9 857.6L767.3 858.3L765.7 859.1L764.1 859.7L762.5 860.4L761.0 861.1L759.4 861.8L757.9 862.4L756.5 863.1L755.0 863.7L753.6 864.3L752.2 864.9L750.9 865.5L749.6 866.1L748.3 866.6L747.0 867.2L745.8 867.7L744.6 868.3L743.5 868.8L742.4 869.3L749.1 882.5L750.1 882.0L751.0 881.5L752.1 880.9L753.2 880.4L754.4 879.8L755.6 879.3L756.8 878.7L758.1 878.1L759.5 877.5L760.8 876.8L762.2 876.2L763.7 875.6L765.2 874.9L766.7 874.2L768.2 873.6L769.8 872.9L771.4 872.2L773.1 871.4L774.7 870.7L776.4 870.0L778.1 869.2L779.8 868.4L781.6 867.6L783.4 866.8L785.1 866.0L786.9 865.2L788.7 864.4L790.6 863.5L792.4 862.6L794.2 861.7L796.1 860.8L797.9 859.9L799.8 859.0L801.7 858.0L803.5 857.1L805.4 856.1L807.2 855.1L809.1 854.1L811.0 853.0L812.8 852.0L814.7 850.9L816.5 849.8L818.3 848.7L820.1 847.6L822.0 846.4L823.7 845.2L825.5 844.1L827.3 842.8L829.0 841.6L830.8 840.4L832.5 839.1L834.1 837.8L835.8 836.5L837.4 835.1L839.0 833.7L840.6 832.3L842.2 830.9L843.7 829.5L845.2 828.0L846.6 826.5L848.0 825.0L849.4 823.4L850.8 821.8L852.1 820.2L853.3 818.6L854.5 816.9L855.7 815.2L856.8 813.4L857.9 811.7L858.9 809.9L859.8 808.0L860.7 806.2L861.5 804.3L862.3 802.3L863.0 800.4L863.6 798.4L864.2 796.3L864.7 794.3L865.1 792.2L865.4 790.1L865.7 787.9L865.9 785.8L866.0 783.6L866.0 781.4L865.9 779.1L865.7 776.9L865.5 774.7L865.2 772.5L864.8 770.2L864.3 768.0L863.7 765.8L863.1 763.7L862.4 761.5L861.7 759.4L860.8 757.4L859.9 755.3L858.9 753.4L857.8 751.4L856.7 749.6L855.4 747.8L854.1 746.1L852.7 744.4L851.2 742.8L849.6 741.4L848.0 740.0L846.2 738.8L844.4 737.7L842.6 736.7L840.6 735.9L838.7 735.2L836.6 734.6L834.6 734.2L832.5 733.9L830.4 733.8L828.3 733.7L826.2 733.8L824.0 734.1L821.9 734.4L819.7 734.9L817.6 735.4L815.4 736.1L813.3 736.9L811.1 737.8L809.0 738.7L806.9 739.8L804.9 740.8L802.8 742.0L800.8 743.1L798.9 744.2L797.0 745.4L795.1 746.5L793.3 747.6L791.6 748.6L789.9 749.6L788.3 750.5L786.9 751.4L785.5 752.1L784.3 752.7L783.2 753.1L782.3 753.5L781.7 753.6L781.5 753.7L781.6 753.7L782.0 753.8L782.6 754.0L783.1 754.3L783.3 754.5L783.4 754.5L783.2 754.3L783.0 753.8L782.7 752.9L782.3 751.9L781.9 750.6L781.5 749.1L781.1 747.4L780.7 745.6L780.2 743.7L779.6 741.7L779.0 739.7L778.4 737.7L777.6 735.6L776.7 733.5L775.6 731.4L774.4 729.5L773.1 727.6L771.7 725.9L770.1 724.3L768.5 722.9L766.7 721.6L764.9 720.4L763.0 719.4L761.1 718.5L759.1 717.8L757.1 717.2L755.0 716.7L752.9 716.4L750.8 716.1L748.7 716.0L746.6 716.0L744.5 716.0L742.3 716.2L740.2 716.5L738.1 716.9L735.9 717.3L733.8 717.9L731.7 718.5L729.6 719.2L727.6 720.0L725.5 720.9L723.5 721.8L721.5 722.9L719.6 724.0L717.7 725.1L715.8 726.4L714.0 727.7L712.2 729.1L710.4 730.6L708.8 732.1L707.2 733.7L705.6 735.4L704.2 737.2L702.8 739.0L701.5 740.8L700.3 742.8L699.1 744.8L698.1 746.8L697.2 748.9L696.4 750.9L695.7 753.1L695.1 755.2L694.5 757.4L694.1 759.5L693.7 761.7L693.4 763.9L693.2 766.1L693.1 768.3L693.0 770.5L693.0 772.7L693.1 775.0L693.2 777.2L693.4 779.4L693.7 781.6L694.0 783.8L694.3 786.0L694.7 788.2L695.1 790.4L695.6 792.6L696.2 794.7L696.7 796.9L697.3 799.0L698.0 801.2L698.6 803.3L699.4 805.4L700.1 807.4L700.9 809.5L701.6 811.5L702.5 813.6L703.3 815.6L704.1 817.5L705.0 819.5L705.9 821.4L706.8 823.3L707.7 825.1L708.6 827.0L709.6 828.8L710.5 830.5L711.5 832.3L712.5 834.0L713.4 835.7L714.4 837.3L715.4 839.0L716.4 840.6L717.4 842.2L718.4 843.7L719.4 845.3L720.4 846.8L721.4 848.3L722.4 849.7L723.4 851.2L724.4 852.6L725.4 853.9L726.4 855.3L727.4 856.6L728.3 857.9L729.2 859.1L730.0 860.2L730.7 861.3L731.3 862.3L731.7 863.1L732.0 863.9L732.2 864.5L732.3 864.9L732.3 865.1L732.2 865.3L732.1 865.6L732.0 865.9L731.8 866.2L731.4 866.7L731.0 867.2L730.4 867.8L729.7 868.4L728.9 869.1L728.0 869.7L727.1 870.4L726.0 871.0L724.9 871.7L723.8 872.3L722.6 873.0L721.3 873.6L720.0 874.2L718.6 874.7L717.2 875.3L715.7 875.9L714.2 876.4L712.6 876.9L711.0 877.4L709.3 877.9L707.6 878.4L705.9 878.8L704.2 879.3L702.4 879.7L700.6 880.1L698.7 880.5L696.8 880.9L695.0 881.2L693.0 881.6L691.1 881.9L689.2 882.2L687.2 882.5L685.2 882.8L683.2 883.1L681.2 883.4L679.2 883.6L677.2 883.8L675.1 884.1L673.1 884.3L671.1 884.5L669.1 884.6L667.0 884.8L665.0 885.0L663.0 885.1L661.0 885.3L659.0 885.4L657.0 885.5L655.0 885.6L653.1 885.7L651.1 885.8L649.2 885.8L647.2 885.9L645.3 885.9L643.4 886.0L641.4 886.0L639.5 886.0L637.6 886.0L635.7 886.0L633.8 886.0L632.0 886.0L630.1 885.9L628.2 885.9L626.4 885.8L624.5 885.8L622.7 885.7L620.8 885.6L619.0 885.5L617.2 885.4L615.4 885.3L613.6 885.2L611.8 885.0L610.0 884.9L608.2 884.7L606.4 884.6L604.6 884.4L602.9 884.2L601.1 884.0L599.3 883.8L597.6 883.6L595.8 883.4L594.1 883.2L592.4 883.0L590.6 882.7L588.9 882.5L587.2 882.2L585.5 881.9L583.7 881.6L582.0 881.4L580.3 881.1L578.6 880.7L576.9 880.4L575.3 880.1L573.6 879.8L571.9 879.4L570.2 879.1L568.5 878.7L566.9 878.4L565.2 878.0L563.6 877.6L561.9 877.2L560.2 876.8L558.6 876.4L556.9 876.0L555.3 875.6L553.7 875.2L552.0 874.7L550.4 874.3L548.7 873.8L547.1 873.4L545.5 872.9L543.9 872.5L542.2 872.0L540.6 871.5L539.0 871.1L537.3 870.6L535.7 870.1L534.1 869.6L532.5 869.1L530.9 868.5L529.3 868.0L527.6 867.5L526.0 866.9L524.4 866.4L522.8 865.8L521.2 865.3L519.6 864.7L518.0 864.1L516.4 863.5L514.8 862.9L513.2 862.3L511.6 861.7L510.0 861.1L508.4 860.4L506.8 859.8L505.2 859.1L503.6 858.5L502.0 857.8L500.4 857.2L498.8 856.5L497.2 855.8L495.6 855.1L494.1 854.4L492.5 853.7L490.9 853.0L489.3 852.3L487.7 851.6L486.1 850.9L484.5 850.1L482.9 849.4L481.3 848.6L479.7 847.9L478.1 847.1L476.5 846.3L474.9 845.6L473.3 844.8L471.7 844.0L470.1 843.2L468.5 842.4L466.9 841.6L465.3 840.8L463.7 840.0L462.1 839.1L460.5 838.3L458.9 837.5L457.3 836.6L455.7 835.8L454.1 834.9L452.5 834.1L450.9 833.3L449.3 832.4L447.6 831.6L446.0 830.7L444.4 829.8L442.8 829.0L441.2 828.1L439.5 827.2L437.9 826.4L436.3 825.5L434.7 824.6L433.0 823.7L431.4 822.8L429.8 821.9L428.2 821.0L426.5 820.1L424.9 819.2L423.3 818.3L421.6 817.4L420.0 816.5L418.4 815.6L416.7 814.6L415.1 813.7L413.4 812.8L411.8 811.9L410.2 810.9L408.5 810.0L406.9 809.1L405.2 808.1L403.6 807.2L401.9 806.2L400.3 805.3L398.6 804.3L397.0 803.4L395.3 802.4L393.7 801.5L392.0 800.5L390.4 799.6L388.7 798.6L387.1 797.7L385.4 796.7L383.7 795.7L382.1 794.8L380.4 793.8L378.8 792.9L377.1 791.9L375.4 790.9L373.8 790.0L372.1 789.0L370.4 788.0L368.8 787.1L367.1 786.1L365.4 785.1L363.7 784.1L362.1 783.2L360.4 782.2L358.7 781.2L357.0 780.3L355.4 779.3L353.7 778.3L352.0 777.4L350.3 776.4L348.6 775.4L346.9 774.5L345.3 773.5L343.6 772.5L341.9 771.6L340.2 770.6L338.5 769.6L336.8 768.7L335.1 767.7L333.4 766.8L331.7 765.8L330.0 764.9L328.3 763.9L326.6 763.0L324.9 762.0L323.2 761.1L321.5 760.1L319.8 759.2L318.1 758.2L316.4 757.3L314.7 756.4L313.0 755.4L311.2 754.5L309.5 753.6L307.8 752.6L306.1 751.7L304.4 750.8L302.6 749.9L300.9 749.0L299.2 748.1L297.5 747.1L295.8 746.2L294.0 745.3L292.3 744.4L290.6 743.6L288.8 742.7L287.1 741.8L285.4 740.9L283.6 740.0L281.9 739.1L280.1 738.3L278.4 737.4L276.7 736.5L274.9 735.7L273.2 734.8L271.4 734.0L269.7 733.1L267.9 732.3L266.2 731.5L264.4 730.6L262.7 729.8L260.9 729.0L259.1 728.2L257.4 727.4L255.6 726.6L253.9 725.8L252.1 725.0L250.3 724.2L248.6 723.4L246.8 722.6L245.0 721.8L243.2 721.1L241.4 720.3L239.6 719.6L237.9 718.8L236.1 718.1L234.3 717.4L232.5 716.7L230.7 716.0L228.9 715.3L227.1 714.6L225.3 713.9L223.4 713.3L221.6 712.6L219.8 712.0L218.0 711.4L216.2 710.7L214.3 710.1L212.5 709.6L210.7 709.0L208.8 708.4L207.0 707.9L205.1 707.4L203.3 706.8L201.4 706.3L199.6 705.8L197.7 705.4L195.9 704.9L194.0 704.5L192.1 704.1L190.2 703.7L188.4 703.3L186.5 702.9L184.6 702.6L182.7 702.2L180.8 701.9L178.9 701.6L177.0 701.4L175.1 701.1L173.2 700.9L171.3 700.7L169.4 700.5L167.5 700.3L165.6 700.2L163.7 700.1L161.8 700.0L159.8 699.9L157.9 699.9L156.0 699.8L154.0 699.8L152.1 699.8L150.2 699.9L148.2 700.0L146.3 700.1L144.3 700.2L142.4 700.3L140.4 700.5L138.5 700.7L136.5 701.0L134.5 701.2L132.6 701.5L130.6 701.8L128.7 702.2L126.7 702.6L124.7 703.0L122.7 703.4L120.8 703.8L118.8 704.3L116.8 704.9L114.9 705.4L112.9 706.0L110.9 706.6L108.9 707.3L106.9 707.9L105.0 708.6L103.0 709.4L101.1 710.1L99.1 710.9L97.2 711.7L95.2 712.6L93.3 713.5L91.4 714.4L89.5 715.3L87.6 716.2L85.7 717.2L83.9 718.2L82.0 719.2L80.2 720.3L78.4 721.4L76.6 722.5L74.8 723.6L73.1 724.8L71.4 725.9L69.7 727.1L68.0 728.4L66.3 729.6L64.7 730.9L63.1 732.2L61.6 733.5L60.0 734.8L58.5 736.2L57.1 737.6L55.7 739.0L54.3 740.4L52.9 741.8L51.6 743.3L50.3 744.8L49.1 746.2L47.9 747.8L46.7 749.3L45.6 750.8L44.6 752.4L43.5 754.0L42.6 755.6L41.7 757.2L40.8 758.8L40.0 760.5L39.2 762.1L38.5 763.8L37.9 765.5L37.3 767.2L36.7 768.9L36.2 770.6L35.8 772.3L35.5 774.0L35.2 775.8L34.9 777.5L34.8 779.3L34.6 781.0L34.6 782.8L34.6 784.5L34.8 786.3L35.0 788.1L35.2 789.8L35.6 791.6L36.0 793.4L36.4 795.1L36.9 796.9L37.5 798.6L38.1 800.4L38.9 802.2L39.6 804.0L40.5 805.7L41.4 807.5L42.4 809.3L43.4 811.1L44.6 812.9L45.8 814.7L47.0 816.5L48.4 818.3L49.8 820.1L51.4 821.9Z" fill="#000" stroke="#000" stroke-width="10.0" stroke-linejoin="round"/>
  <path d="M313.3 544.6L310.8 544.5L308.4 544.6L306.1 544.7L304.0 545.0L302.0 545.3L300.1 545.8L298.2 546.3L296.5 546.9L294.9 547.7L293.3 548.5L291.8 549.3L290.3 550.3L288.9 551.3L287.6 552.5L286.2 553.6L284.9 554.9L283.6 556.2L282.2 557.5L280.9 558.9L279.6 560.3L278.2 561.7L276.8 563.2L275.3 564.6L273.8 566.0L272.2 567.4L270.6 568.7L268.9 570.0L267.0 571.2L265.1 572.4L263.2 573.4L261.2 574.4L259.2 575.2L257.2 575.9L255.3 576.5L253.4 576.9L251.5 577.2L249.8 577.3L248.1 577.3L246.6 577.1L245.2 576.6L244.0 576.0L242.9 575.2L242.0 574.2L241.2 573.1L240.5 571.8L239.9 570.4L239.4 568.8L238.9 567.2L238.4 565.5L238.0 563.7L237.5 561.9L237.1 560.1L236.5 558.2L236.0 556.4L235.3 554.6L234.6 552.8L233.8 551.0L233.0 549.2L232.1 547.5L231.1 545.8L230.1 544.1L229.0 542.5L227.9 540.9L226.7 539.3L225.4 537.8L224.2 536.4L222.8 534.9L221.5 533.6L220.1 532.3L218.6 531.0L217.1 529.8L215.6 528.7L214.0 527.6L212.5 526.6L210.9 525.7L209.2 524.8L207.5 524.0L205.9 523.3L204.2 522.7L202.4 522.1L200.7 521.7L198.9 521.3L197.2 521.0L195.4 520.7L193.6 520.5L191.8 520.4L190.1 520.3L188.3 520.2L186.5 520.1L184.7 520.1L182.9 520.0L181.1 519.9L179.4 519.9L177.6 519.8L175.9 519.6L174.1 519.4L172.4 519.2L170.7 518.9L169.1 518.6L167.4 518.2L165.8 517.6L164.2 517.0L162.7 516.3L161.1 515.5L159.7 514.6L158.2 513.5L156.8 512.4L155.4 511.2L154.1 509.9L152.8 508.5L151.6 507.0L150.4 505.4L149.2 503.8L148.2 502.1L147.2 500.4L146.2 498.6L145.3 496.8L144.5 494.9L143.7 493.0L143.0 491.0L142.4 489.0L141.9 487.0L141.4 485.0L141.0 483.0L140.7 481.0L140.5 479.0L140.3 476.9L140.3 474.9L140.3 472.9L140.5 471.0L140.7 469.0L141.0 467.1L141.4 465.2L141.9 463.3L142.4 461.5L143.1 459.7L143.8 457.9L144.6 456.2L145.5 454.5L146.4 452.8L147.4 451.2L148.5 449.6L149.6 448.1L150.8 446.6L152.0 445.2L153.3 443.8L154.6 442.4L156.0 441.1L157.4 439.9L158.9 438.7L160.4 437.6L162.0 436.5L163.6 435.5L165.2 434.6L166.8 433.7L168.5 432.9L170.2 432.1L171.9 431.4L173.7 430.7L175.4 430.1L177.1 429.4L178.8 428.8L180.5 428.2L182.2 427.5L183.9 426.8L185.5 426.1L187.1 425.4L188.7 424.5L190.2 423.6L191.7 422.7L193.1 421.6L194.4 420.6L195.7 419.4L196.9 418.2L198.0 416.9L199.0 415.6L200.0 414.2L200.8 412.8L201.5 411.3L202.2 409.8L202.7 408.3L203.1 406.7L203.4 405.0L203.7 403.4L204.0 401.7L204.3 400.0L204.5 398.2L204.8 396.5L205.2 394.8L205.7 393.0L206.2 391.3L206.9 389.5L207.7 387.8L208.6 386.1L209.7 384.4L210.9 382.7L212.2 381.0L213.6 379.4L215.1 377.8L216.6 376.3L218.2 374.8L219.9 373.3L221.6 372.0L223.3 370.6L225.0 369.4L226.7 368.2L228.4 367.0L230.1 366.0L231.7 365.0L233.4 364.1L235.1 363.2L236.7 362.4L238.4 361.7L240.0 361.1L241.7 360.5L243.3 360.0L245.0 359.5L246.7 359.1L248.4 358.8L250.1 358.5L251.8 358.3L253.6 358.1L255.4 358.0L257.2 357.9L259.0 357.9L260.9 357.9L262.8 358.0L264.7 358.1L266.7 358.3L268.7 358.5L270.8 358.7L272.9 359.0L275.1 359.4L277.3 359.7L279.5 360.0L281.6 360.2L283.8 360.5L285.9 360.6L288.0 360.6L290.0 360.6L291.9 360.4L293.7 360.0L295.5 359.5L297.1 358.9L298.7 358.1L300.2 357.1L301.6 356.1L302.9 354.9L304.2 353.7L305.5 352.4L306.8 351.0L308.0 349.7L309.3 348.3L310.6 346.9L311.9 345.5L313.2 344.2L314.6 342.9L316.0 341.6L317.5 340.4L319.0 339.3L320.6 338.2L322.2 337.2L323.9 336.2L325.5 335.3L327.3 334.4L329.0 333.6L330.8 332.8L332.6 332.1L334.5 331.5L336.3 330.8L338.2 330.3L340.1 329.8L342.1 329.3L344.0 328.9L345.9 328.6L347.9 328.3L349.9 328.0L351.9 327.9L353.8 327.7L355.8 327.6L357.8 327.6L359.8 327.6L361.8 327.7L363.7 327.8L365.7 328.0L367.6 328.2L369.6 328.5L371.5 328.8L373.4 329.2L375.3 329.6L377.1 330.1L379.0 330.6L380.8 331.2L382.6 331.8L384.3 332.5L386.0 333.3L387.7 334.0L389.4 334.9L391.0 335.8L392.5 336.7L394.0 337.7L395.5 338.7L396.9 339.8L398.3 341.0L399.6 342.2L400.9 343.4L402.1 344.7L403.2 346.0L404.3 347.4L405.3 348.9L406.3 350.3L407.2 351.9L408.1 353.4L408.8 355.0L409.6 356.7L410.3 358.3L410.9 360.0L411.4 361.8L411.9 363.5L412.4 365.3L412.8 367.1L413.1 369.0L413.4 370.8L413.7 372.7L413.8 374.6L414.0 376.5L414.0 378.4L414.1 380.3L414.0 382.2L413.9 384.2L413.8 386.1L413.6 388.0L413.4 390.0L413.1 391.9L412.7 393.9L412.4 395.8L411.9 397.7L411.4 399.6L410.9 401.5L410.3 403.4L409.7 405.2L409.0 407.1L408.3 408.9L407.5 410.7L406.6 412.5L405.8 414.2L404.9 415.9L403.9 417.6L402.9 419.3L401.8 420.9L400.7 422.5L399.6 424.0L398.4 425.5L397.2 427.0L395.9 428.4L394.6 429.8L393.2 431.1L391.8 432.4L390.4 433.6L389.0 434.8L387.5 435.9L386.1 437.1L384.7 438.3L383.4 439.5L382.2 440.8L381.1 442.2L380.1 443.6L379.3 445.1L378.7 446.6L378.3 448.2L378.1 449.9L378.1 451.6L378.3 453.3L378.7 455.1L379.2 456.9L379.7 458.6L380.3 460.4L380.9 462.1L381.5 463.8L382.1 465.5L382.8 467.2L383.5 468.8L384.3 470.3L385.1 471.9L385.9 473.4L386.7 474.8L387.5 476.3L388.4 477.7L389.2 479.1L390.1 480.6L391.0 482.0L391.8 483.4L392.6 484.9L393.4 486.4L394.2 487.9L394.9 489.4L395.6 491.0L396.3 492.6L396.9 494.3L397.5 496.1L398.0 497.9L398.4 499.8L398.8 501.7L399.1 503.8L399.3 505.9L399.4 508.2L399.4 510.5" fill="none" stroke="#000" stroke-width="25.5" stroke-linejoin="round" stroke-linecap="round"/>
  <path d="M229.7 543.4L231.2 542.2L232.7 540.9L234.2 539.7L235.7 538.4L237.2 537.2L238.7 535.9L240.2 534.7L241.8 533.5L243.3 532.3L244.8 531.1L246.3 529.9L247.9 528.7L249.4 527.5L250.9 526.3L252.5 525.1L254.0 523.9L255.6 522.8L257.1 521.6L258.7 520.5L260.2 519.3L261.8 518.2L263.4 517.1L264.9 516.0L266.5 514.9L268.1 513.8L269.7 512.7L271.3 511.6L272.9 510.5L274.4 509.5L276.0 508.4L277.6 507.4L279.3 506.4L280.9 505.4L282.5 504.4L284.1 503.4L285.7 502.4L287.3 501.4L289.0 500.4L290.6 499.5L292.3 498.6L293.9 497.6L295.6 496.7L297.2 495.8L298.9 494.9L300.6 494.0L302.2 493.2L303.9 492.3L305.6 491.5L307.3 490.6L309.0 489.8L310.7 489.0L312.4 488.2L314.1 487.5L315.8 486.7L317.5 486.0L319.3 485.2L321.0 484.5L322.7 483.8L324.5 483.1L326.2 482.4L328.0 481.8L329.8 481.1L331.5 480.5L333.3 479.9L335.1 479.3L336.9 478.7L338.7 478.2L340.5 477.6L342.3 477.1L344.1 476.6L346.0 476.1L347.8 475.6L349.6 475.1L351.5 474.7L353.3 474.3L355.2 473.9L357.1 473.5L358.9 473.1L360.8 472.7L362.7 472.4L364.6 472.1L366.5 471.8L368.4 471.5L370.4 471.2L372.3 471.0L374.2 470.8L376.2 470.6L378.1 470.4L380.1 470.2" fill="none" stroke="#000" stroke-width="25.5" stroke-linecap="round"/>
</mask></defs>
<path fill="url(#ouro)" d="M443.2 502Q516.5 502 569.3 530Q622.1 557.9 650.7 606.5Q679.3 655.1 679.3 717Q679.3 763.4 662.3 802.7Q645.4 842 613.9 870.9Q582.4 899.9 539.1 915.9Q495.9 932 443.2 932H255V920.8H313.4V513.2H255V502ZM385.8 920.8H443.2Q485.9 920.8 514.8 904.2Q543.7 887.6 561.3 858.9Q578.9 830.2 586.6 793.5Q594.4 756.8 594.4 717Q594.4 677.2 585.6 640.5Q576.9 603.8 558.8 575.1Q540.8 546.4 512.2 529.8Q483.6 513.2 443.2 513.2H385.8Z" mask="url(#folga)"/>
<path d="M313.3 544.6L310.8 544.5L308.4 544.6L306.1 544.7L304.0 545.0L302.0 545.3L300.1 545.8L298.2 546.3L296.5 546.9L294.9 547.7L293.3 548.5L291.8 549.3L290.3 550.3L288.9 551.3L287.6 552.5L286.2 553.6L284.9 554.9L283.6 556.2L282.2 557.5L280.9 558.9L279.6 560.3L278.2 561.7L276.8 563.2L275.3 564.6L273.8 566.0L272.2 567.4L270.6 568.7L268.9 570.0L267.0 571.2L265.1 572.4L263.2 573.4L261.2 574.4L259.2 575.2L257.2 575.9L255.3 576.5L253.4 576.9L251.5 577.2L249.8 577.3L248.1 577.3L246.6 577.1L245.2 576.6L244.0 576.0L242.9 575.2L242.0 574.2L241.2 573.1L240.5 571.8L239.9 570.4L239.4 568.8L238.9 567.2L238.4 565.5L238.0 563.7L237.5 561.9L237.1 560.1L236.5 558.2L236.0 556.4L235.3 554.6L234.6 552.8L233.8 551.0L233.0 549.2L232.1 547.5L231.1 545.8L230.1 544.1L229.0 542.5L227.9 540.9L226.7 539.3L225.4 537.8L224.2 536.4L222.8 534.9L221.5 533.6L220.1 532.3L218.6 531.0L217.1 529.8L215.6 528.7L214.0 527.6L212.5 526.6L210.9 525.7L209.2 524.8L207.5 524.0L205.9 523.3L204.2 522.7L202.4 522.1L200.7 521.7L198.9 521.3L197.2 521.0L195.4 520.7L193.6 520.5L191.8 520.4L190.1 520.3L188.3 520.2L186.5 520.1L184.7 520.1L182.9 520.0L181.1 519.9L179.4 519.9L177.6 519.8L175.9 519.6L174.1 519.4L172.4 519.2L170.7 518.9L169.1 518.6L167.4 518.2L165.8 517.6L164.2 517.0L162.7 516.3L161.1 515.5L159.7 514.6L158.2 513.5L156.8 512.4L155.4 511.2L154.1 509.9L152.8 508.5L151.6 507.0L150.4 505.4L149.2 503.8L148.2 502.1L147.2 500.4L146.2 498.6L145.3 496.8L144.5 494.9L143.7 493.0L143.0 491.0L142.4 489.0L141.9 487.0L141.4 485.0L141.0 483.0L140.7 481.0L140.5 479.0L140.3 476.9L140.3 474.9L140.3 472.9L140.5 471.0L140.7 469.0L141.0 467.1L141.4 465.2L141.9 463.3L142.4 461.5L143.1 459.7L143.8 457.9L144.6 456.2L145.5 454.5L146.4 452.8L147.4 451.2L148.5 449.6L149.6 448.1L150.8 446.6L152.0 445.2L153.3 443.8L154.6 442.4L156.0 441.1L157.4 439.9L158.9 438.7L160.4 437.6L162.0 436.5L163.6 435.5L165.2 434.6L166.8 433.7L168.5 432.9L170.2 432.1L171.9 431.4L173.7 430.7L175.4 430.1L177.1 429.4L178.8 428.8L180.5 428.2L182.2 427.5L183.9 426.8L185.5 426.1L187.1 425.4L188.7 424.5L190.2 423.6L191.7 422.7L193.1 421.6L194.4 420.6L195.7 419.4L196.9 418.2L198.0 416.9L199.0 415.6L200.0 414.2L200.8 412.8L201.5 411.3L202.2 409.8L202.7 408.3L203.1 406.7L203.4 405.0L203.7 403.4L204.0 401.7L204.3 400.0L204.5 398.2L204.8 396.5L205.2 394.8L205.7 393.0L206.2 391.3L206.9 389.5L207.7 387.8L208.6 386.1L209.7 384.4L210.9 382.7L212.2 381.0L213.6 379.4L215.1 377.8L216.6 376.3L218.2 374.8L219.9 373.3L221.6 372.0L223.3 370.6L225.0 369.4L226.7 368.2L228.4 367.0L230.1 366.0L231.7 365.0L233.4 364.1L235.1 363.2L236.7 362.4L238.4 361.7L240.0 361.1L241.7 360.5L243.3 360.0L245.0 359.5L246.7 359.1L248.4 358.8L250.1 358.5L251.8 358.3L253.6 358.1L255.4 358.0L257.2 357.9L259.0 357.9L260.9 357.9L262.8 358.0L264.7 358.1L266.7 358.3L268.7 358.5L270.8 358.7L272.9 359.0L275.1 359.4L277.3 359.7L279.5 360.0L281.6 360.2L283.8 360.5L285.9 360.6L288.0 360.6L290.0 360.6L291.9 360.4L293.7 360.0L295.5 359.5L297.1 358.9L298.7 358.1L300.2 357.1L301.6 356.1L302.9 354.9L304.2 353.7L305.5 352.4L306.8 351.0L308.0 349.7L309.3 348.3L310.6 346.9L311.9 345.5L313.2 344.2L314.6 342.9L316.0 341.6L317.5 340.4L319.0 339.3L320.6 338.2L322.2 337.2L323.9 336.2L325.5 335.3L327.3 334.4L329.0 333.6L330.8 332.8L332.6 332.1L334.5 331.5L336.3 330.8L338.2 330.3L340.1 329.8L342.1 329.3L344.0 328.9L345.9 328.6L347.9 328.3L349.9 328.0L351.9 327.9L353.8 327.7L355.8 327.6L357.8 327.6L359.8 327.6L361.8 327.7L363.7 327.8L365.7 328.0L367.6 328.2L369.6 328.5L371.5 328.8L373.4 329.2L375.3 329.6L377.1 330.1L379.0 330.6L380.8 331.2L382.6 331.8L384.3 332.5L386.0 333.3L387.7 334.0L389.4 334.9L391.0 335.8L392.5 336.7L394.0 337.7L395.5 338.7L396.9 339.8L398.3 341.0L399.6 342.2L400.9 343.4L402.1 344.7L403.2 346.0L404.3 347.4L405.3 348.9L406.3 350.3L407.2 351.9L408.1 353.4L408.8 355.0L409.6 356.7L410.3 358.3L410.9 360.0L411.4 361.8L411.9 363.5L412.4 365.3L412.8 367.1L413.1 369.0L413.4 370.8L413.7 372.7L413.8 374.6L414.0 376.5L414.0 378.4L414.1 380.3L414.0 382.2L413.9 384.2L413.8 386.1L413.6 388.0L413.4 390.0L413.1 391.9L412.7 393.9L412.4 395.8L411.9 397.7L411.4 399.6L410.9 401.5L410.3 403.4L409.7 405.2L409.0 407.1L408.3 408.9L407.5 410.7L406.6 412.5L405.8 414.2L404.9 415.9L403.9 417.6L402.9 419.3L401.8 420.9L400.7 422.5L399.6 424.0L398.4 425.5L397.2 427.0L395.9 428.4L394.6 429.8L393.2 431.1L391.8 432.4L390.4 433.6L389.0 434.8L387.5 435.9L386.1 437.1L384.7 438.3L383.4 439.5L382.2 440.8L381.1 442.2L380.1 443.6L379.3 445.1L378.7 446.6L378.3 448.2L378.1 449.9L378.1 451.6L378.3 453.3L378.7 455.1L379.2 456.9L379.7 458.6L380.3 460.4L380.9 462.1L381.5 463.8L382.1 465.5L382.8 467.2L383.5 468.8L384.3 470.3L385.1 471.9L385.9 473.4L386.7 474.8L387.5 476.3L388.4 477.7L389.2 479.1L390.1 480.6L391.0 482.0L391.8 483.4L392.6 484.9L393.4 486.4L394.2 487.9L394.9 489.4L395.6 491.0L396.3 492.6L396.9 494.3L397.5 496.1L398.0 497.9L398.4 499.8L398.8 501.7L399.1 503.8L399.3 505.9L399.4 508.2L399.4 510.5" fill="none" stroke="url(#ouro)" stroke-width="15.5" stroke-linejoin="round" stroke-linecap="round"/>
<path d="M229.7 543.4L231.2 542.2L232.7 540.9L234.2 539.7L235.7 538.4L237.2 537.2L238.7 535.9L240.2 534.7L241.8 533.5L243.3 532.3L244.8 531.1L246.3 529.9L247.9 528.7L249.4 527.5L250.9 526.3L252.5 525.1L254.0 523.9L255.6 522.8L257.1 521.6L258.7 520.5L260.2 519.3L261.8 518.2L263.4 517.1L264.9 516.0L266.5 514.9L268.1 513.8L269.7 512.7L271.3 511.6L272.9 510.5L274.4 509.5L276.0 508.4L277.6 507.4L279.3 506.4L280.9 505.4L282.5 504.4L284.1 503.4L285.7 502.4L287.3 501.4L289.0 500.4L290.6 499.5L292.3 498.6L293.9 497.6L295.6 496.7L297.2 495.8L298.9 494.9L300.6 494.0L302.2 493.2L303.9 492.3L305.6 491.5L307.3 490.6L309.0 489.8L310.7 489.0L312.4 488.2L314.1 487.5L315.8 486.7L317.5 486.0L319.3 485.2L321.0 484.5L322.7 483.8L324.5 483.1L326.2 482.4L328.0 481.8L329.8 481.1L331.5 480.5L333.3 479.9L335.1 479.3L336.9 478.7L338.7 478.2L340.5 477.6L342.3 477.1L344.1 476.6L346.0 476.1L347.8 475.6L349.6 475.1L351.5 474.7L353.3 474.3L355.2 473.9L357.1 473.5L358.9 473.1L360.8 472.7L362.7 472.4L364.6 472.1L366.5 471.8L368.4 471.5L370.4 471.2L372.3 471.0L374.2 470.8L376.2 470.6L378.1 470.4L380.1 470.2" fill="none" stroke="url(#ouro)" stroke-width="15.5" stroke-linecap="round"/>
<path d="M51.5 821.8L50.0 820.0L48.6 818.1L47.3 816.3L46.1 814.5L44.9 812.6L43.9 810.8L42.9 809.0L42.1 807.2L41.3 805.4L40.6 803.6L40.0 801.8L39.4 800.0L39.0 798.2L38.6 796.5L38.3 794.7L38.1 793.0L38.0 791.3L37.9 789.6L38.0 787.9L38.1 786.3L38.2 784.6L38.4 783.0L38.6 781.4L38.9 779.8L39.2 778.3L39.6 776.7L40.1 775.2L40.6 773.7L41.2 772.2L41.8 770.7L42.4 769.2L43.1 767.8L43.9 766.4L44.7 764.9L45.6 763.5L46.5 762.1L47.4 760.8L48.4 759.4L49.4 758.1L50.5 756.8L51.6 755.4L52.7 754.1L53.9 752.9L55.1 751.6L56.4 750.4L57.6 749.1L59.0 747.9L60.3 746.7L61.7 745.5L63.1 744.4L64.6 743.2L66.0 742.1L67.5 741.0L69.0 739.9L70.6 738.8L72.2 737.8L73.8 736.8L75.4 735.7L77.0 734.8L78.7 733.8L80.4 732.8L82.1 731.9L83.8 731.0L85.5 730.1L87.3 729.3L89.1 728.4L90.8 727.6L92.6 726.8L94.4 726.0L96.2 725.3L98.0 724.6L99.9 723.9L101.7 723.2L103.5 722.5L105.4 721.9L107.2 721.3L109.0 720.8L110.9 720.2L112.7 719.7L114.5 719.2L116.4 718.7L118.2 718.3L120.0 717.9L121.8 717.5L123.7 717.2L125.5 716.9L127.3 716.6L129.1 716.3L130.8 716.0L132.6 715.8L134.4 715.6L136.2 715.4L138.0 715.3L139.7 715.2L141.5 715.1L143.3 715.0L145.0 715.0L146.8 714.9L148.5 714.9L150.3 714.9L152.0 715.0L153.8 715.0L155.5 715.1L157.3 715.2L159.0 715.3L160.7 715.5L162.5 715.6L164.2 715.8L165.9 716.0L167.7 716.2L169.4 716.5L171.1 716.8L172.8 717.0L174.5 717.3L176.3 717.6L178.0 718.0L179.7 718.3L181.4 718.7L183.1 719.1L184.8 719.5L186.5 719.9L188.2 720.4L189.9 720.8L191.6 721.3L193.3 721.8L195.0 722.3L196.7 722.8L198.4 723.3L200.1 723.8L201.8 724.4L203.5 725.0L205.2 725.6L206.9 726.2L208.6 726.8L210.3 727.4L212.0 728.0L213.7 728.7L215.4 729.4L217.1 730.0L218.7 730.7L220.4 731.4L222.1 732.1L223.8 732.8L225.5 733.6L227.2 734.3L228.9 735.1L230.5 735.8L232.2 736.6L233.9 737.4L235.6 738.2L237.3 739.0L238.9 739.8L240.6 740.6L242.3 741.4L244.0 742.2L245.7 743.0L247.3 743.9L249.0 744.7L250.7 745.6L252.4 746.4L254.0 747.3L255.7 748.2L257.4 749.1L259.1 749.9L260.7 750.8L262.4 751.7L264.1 752.6L265.7 753.5L267.4 754.4L269.0 755.3L270.7 756.2L272.4 757.2L274.0 758.1L275.7 759.0L277.3 759.9L279.0 760.9L280.7 761.8L282.3 762.8L284.0 763.7L285.6 764.7L287.3 765.6L288.9 766.6L290.6 767.6L292.2 768.5L293.9 769.5L295.5 770.5L297.2 771.4L298.8 772.4L300.4 773.4L302.1 774.4L303.7 775.4L305.4 776.4L307.0 777.4L308.7 778.4L310.3 779.4L311.9 780.4L313.6 781.4L315.2 782.4L316.8 783.4L318.5 784.4L320.1 785.4L321.8 786.4L323.4 787.5L325.0 788.5L326.7 789.5L328.3 790.5L329.9 791.6L331.6 792.6L333.2 793.6L334.8 794.6L336.5 795.7L338.1 796.7L339.7 797.7L341.3 798.8L343.0 799.8L344.6 800.8L346.2 801.9L347.9 802.9L349.5 803.9L351.1 805.0L352.8 806.0L354.4 807.0L356.0 808.1L357.6 809.1L359.3 810.1L360.9 811.2L362.5 812.2L364.2 813.2L365.8 814.3L367.4 815.3L369.0 816.3L370.7 817.3L372.3 818.4L373.9 819.4L375.6 820.4L377.2 821.5L378.8 822.5L380.4 823.5L382.1 824.5L383.7 825.5L385.3 826.6L387.0 827.6L388.6 828.6L390.2 829.6L391.9 830.6L393.5 831.6L395.1 832.6L396.8 833.6L398.4 834.6L400.0 835.6L401.7 836.6L403.3 837.6L404.9 838.6L406.6 839.6L408.2 840.6L409.8 841.6L411.5 842.5L413.1 843.5L414.7 844.5L416.4 845.4L418.0 846.4L419.7 847.4L421.3 848.3L423.0 849.3L424.6 850.2L426.2 851.2L427.9 852.1L429.5 853.0L431.2 854.0L432.8 854.9L434.5 855.8L436.1 856.7L437.8 857.7L439.4 858.6L441.1 859.5L442.7 860.3L444.4 861.2L446.1 862.1L447.7 863.0L449.4 863.8L451.1 864.7L452.7 865.5L454.4 866.4L456.1 867.2L457.7 868.0L459.4 868.9L461.1 869.7L462.8 870.5L464.4 871.3L466.1 872.1L467.8 872.9L469.4 873.7L471.1 874.5L472.8 875.3L474.5 876.1L476.2 876.9L477.8 877.6L479.5 878.4L481.2 879.1L482.9 879.9L484.6 880.6L486.3 881.3L488.0 882.1L489.7 882.8L491.4 883.5L493.1 884.2L494.8 884.9L496.5 885.6L498.2 886.2L499.9 886.9L501.6 887.6L503.3 888.2L505.0 888.9L506.7 889.5L508.4 890.2L510.2 890.8L511.9 891.4L513.6 892.0L515.3 892.6L517.1 893.2L518.8 893.8L520.6 894.4L522.3 895.0L524.0 895.5L525.8 896.1L527.5 896.6L529.3 897.2L531.1 897.7L532.8 898.2L534.6 898.7L536.4 899.2L538.1 899.7L539.9 900.2L541.7 900.6L543.5 901.1L545.3 901.5L547.1 901.9L548.9 902.3L550.7 902.7L552.5 903.1L554.3 903.5L556.1 903.9L557.9 904.2L559.8 904.6L561.6 904.9L563.4 905.2L565.3 905.5L567.1 905.8L569.0 906.1L570.8 906.4L572.7 906.7L574.5 906.9L576.4 907.2L578.3 907.4L580.1 907.6L582.0 907.8L583.9 908.0L585.8 908.2L587.7 908.4L589.6 908.5L591.5 908.7L593.4 908.8L595.3 908.9L597.2 909.0L599.1 909.1L601.1 909.2L603.0 909.3L604.9 909.4L606.9 909.4L608.8 909.4L610.8 909.5L612.7 909.5L614.7 909.5L616.6 909.5L618.6 909.4L620.6 909.4L622.6 909.3L624.6 909.3L626.5 909.2L628.5 909.1L630.5 909.0L632.5 908.8L634.6 908.7L636.6 908.6L638.6 908.4L640.6 908.2L642.7 908.0L644.7 907.8L646.7 907.6L648.8 907.4L650.9 907.1L652.9 906.8L655.0 906.6L657.1 906.3L659.1 906.0L661.2 905.7L663.3 905.3L665.4 905.0L667.5 904.6L669.6 904.2L671.7 903.8L673.9 903.4L676.0 903.0L678.1 902.6L680.2 902.1L682.3 901.7L684.4 901.2L686.5 900.7L688.6 900.2L690.7 899.6L692.8 899.1L694.8 898.5L696.9 898.0L698.9 897.4L700.9 896.8L702.9 896.1L704.8 895.5L706.8 894.8L708.7 894.2L710.6 893.5L712.4 892.8L714.3 892.0L716.1 891.3L717.8 890.5L719.6 889.7L721.3 888.9L722.9 888.1L724.5 887.3L726.1 886.4L727.7 885.5L729.2 884.6L730.6 883.7L732.0 882.7L733.4 881.7L734.7 880.7L736.0 879.7L737.2 878.6L738.4 877.4L739.5 876.2L740.5 874.9L741.5 873.5L742.4 872.0L743.1 870.4L743.6 868.7L744.0 866.8L744.1 864.9L743.9 863.0L743.4 861.2L742.8 859.5L742.1 858.0L741.3 856.5L740.5 855.1L739.5 853.7L738.6 852.4L737.7 851.1L736.7 849.8L735.7 848.5L734.8 847.2L733.9 845.9L732.9 844.5L732.0 843.2L731.1 841.8L730.2 840.4L729.3 838.9L728.4 837.5L727.5 836.0L726.6 834.5L725.7 832.9L724.9 831.4L724.0 829.8L723.2 828.2L722.3 826.5L721.5 824.9L720.7 823.2L719.9 821.5L719.2 819.8L718.4 818.0L717.7 816.2L716.9 814.4L716.3 812.6L715.6 810.7L714.9 808.9L714.3 807.0L713.7 805.1L713.1 803.2L712.6 801.3L712.1 799.3L711.6 797.4L711.1 795.5L710.7 793.5L710.4 791.6L710.0 789.7L709.7 787.7L709.5 785.8L709.3 783.9L709.1 782.1L709.0 780.2L708.9 778.3L708.8 776.5L708.9 774.7L708.9 772.9L709.0 771.2L709.2 769.4L709.4 767.7L709.6 766.1L709.9 764.5L710.3 762.9L710.7 761.3L711.1 759.8L711.6 758.4L712.1 756.9L712.7 755.5L713.4 754.2L714.1 752.9L714.8 751.6L715.7 750.3L716.5 749.1L717.5 747.9L718.5 746.7L719.5 745.6L720.7 744.4L721.8 743.4L723.0 742.3L724.3 741.3L725.6 740.3L727.0 739.3L728.3 738.5L729.7 737.6L731.2 736.8L732.6 736.1L734.1 735.4L735.6 734.8L737.0 734.2L738.5 733.7L740.0 733.2L741.5 732.8L742.9 732.5L744.3 732.3L745.7 732.1L747.1 732.0L748.4 731.9L749.7 731.9L751.0 732.0L752.2 732.1L753.4 732.3L754.5 732.6L755.5 732.9L756.5 733.3L757.4 733.8L758.3 734.3L759.2 734.8L760.0 735.4L760.7 736.2L761.5 736.9L762.2 737.8L762.8 738.8L763.4 739.9L764.0 741.2L764.6 742.6L765.2 744.2L765.7 745.8L766.2 747.5L766.7 749.3L767.1 751.0L767.6 752.8L768.1 754.5L768.6 756.2L769.1 757.9L769.8 759.5L770.6 761.1L771.5 762.7L772.8 764.2L774.4 765.7L776.3 766.9L778.5 767.7L780.8 768.1L782.9 768.0L784.9 767.7L786.7 767.2L788.5 766.6L790.2 765.9L791.9 765.1L793.7 764.2L795.4 763.2L797.2 762.3L799.0 761.2L800.8 760.2L802.6 759.1L804.4 758.1L806.3 757.0L808.1 756.0L810.0 755.0L811.8 754.0L813.5 753.1L815.3 752.3L817.0 751.6L818.6 751.0L820.1 750.4L821.6 750.0L823.1 749.7L824.5 749.4L825.9 749.2L827.2 749.1L828.4 749.1L829.6 749.2L830.7 749.3L831.8 749.5L832.8 749.7L833.8 750.0L834.8 750.4L835.7 750.8L836.6 751.3L837.5 751.9L838.3 752.5L839.1 753.3L840.0 754.1L840.8 755.0L841.6 756.0L842.4 757.0L843.1 758.2L843.9 759.5L844.6 760.8L845.3 762.2L845.9 763.7L846.5 765.2L847.1 766.8L847.6 768.4L848.0 770.0L848.4 771.7L848.8 773.3L849.0 775.0L849.3 776.7L849.4 778.3L849.6 780.0L849.6 781.6L849.6 783.2L849.5 784.8L849.4 786.3L849.2 787.8L849.0 789.4L848.7 790.8L848.4 792.3L848.0 793.8L847.6 795.2L847.1 796.7L846.5 798.1L845.9 799.5L845.3 800.9L844.6 802.3L843.8 803.7L843.0 805.1L842.2 806.4L841.3 807.8L840.4 809.2L839.4 810.5L838.4 811.8L837.3 813.2L836.2 814.5L835.1 815.8L833.9 817.1L832.6 818.3L831.4 819.6L830.1 820.9L828.7 822.1L827.3 823.3L825.9 824.5L824.5 825.8L823.0 826.9L821.5 828.1L820.0 829.3L818.4 830.4L816.9 831.6L815.3 832.7L813.6 833.8L812.0 834.9L810.3 836.0L808.7 837.1L807.0 838.1L805.3 839.1L803.6 840.2L801.8 841.2L800.1 842.2L798.3 843.1L796.6 844.1L794.8 845.1L793.1 846.0L791.3 846.9L789.6 847.8L787.8 848.7L786.0 849.6L784.3 850.5L782.5 851.3L780.8 852.2L779.1 853.0L777.3 853.8L775.6 854.6L773.9 855.4L772.2 856.1L770.6 856.9L768.9 857.6L767.3 858.3L765.7 859.1L764.1 859.7L762.5 860.4L761.0 861.1L759.4 861.8L757.9 862.4L756.5 863.1L755.0 863.7L753.6 864.3L752.2 864.9L750.9 865.5L749.6 866.1L748.3 866.6L747.0 867.2L745.8 867.7L744.6 868.3L743.5 868.8L742.4 869.3L749.1 882.5L750.1 882.0L751.0 881.5L752.1 880.9L753.2 880.4L754.4 879.8L755.6 879.3L756.8 878.7L758.1 878.1L759.5 877.5L760.8 876.8L762.2 876.2L763.7 875.6L765.2 874.9L766.7 874.2L768.2 873.6L769.8 872.9L771.4 872.2L773.1 871.4L774.7 870.7L776.4 870.0L778.1 869.2L779.8 868.4L781.6 867.6L783.4 866.8L785.1 866.0L786.9 865.2L788.7 864.4L790.6 863.5L792.4 862.6L794.2 861.7L796.1 860.8L797.9 859.9L799.8 859.0L801.7 858.0L803.5 857.1L805.4 856.1L807.2 855.1L809.1 854.1L811.0 853.0L812.8 852.0L814.7 850.9L816.5 849.8L818.3 848.7L820.1 847.6L822.0 846.4L823.7 845.2L825.5 844.1L827.3 842.8L829.0 841.6L830.8 840.4L832.5 839.1L834.1 837.8L835.8 836.5L837.4 835.1L839.0 833.7L840.6 832.3L842.2 830.9L843.7 829.5L845.2 828.0L846.6 826.5L848.0 825.0L849.4 823.4L850.8 821.8L852.1 820.2L853.3 818.6L854.5 816.9L855.7 815.2L856.8 813.4L857.9 811.7L858.9 809.9L859.8 808.0L860.7 806.2L861.5 804.3L862.3 802.3L863.0 800.4L863.6 798.4L864.2 796.3L864.7 794.3L865.1 792.2L865.4 790.1L865.7 787.9L865.9 785.8L866.0 783.6L866.0 781.4L865.9 779.1L865.7 776.9L865.5 774.7L865.2 772.5L864.8 770.2L864.3 768.0L863.7 765.8L863.1 763.7L862.4 761.5L861.7 759.4L860.8 757.4L859.9 755.3L858.9 753.4L857.8 751.4L856.7 749.6L855.4 747.8L854.1 746.1L852.7 744.4L851.2 742.8L849.6 741.4L848.0 740.0L846.2 738.8L844.4 737.7L842.6 736.7L840.6 735.9L838.7 735.2L836.6 734.6L834.6 734.2L832.5 733.9L830.4 733.8L828.3 733.7L826.2 733.8L824.0 734.1L821.9 734.4L819.7 734.9L817.6 735.4L815.4 736.1L813.3 736.9L811.1 737.8L809.0 738.7L806.9 739.8L804.9 740.8L802.8 742.0L800.8 743.1L798.9 744.2L797.0 745.4L795.1 746.5L793.3 747.6L791.6 748.6L789.9 749.6L788.3 750.5L786.9 751.4L785.5 752.1L784.3 752.7L783.2 753.1L782.3 753.5L781.7 753.6L781.5 753.7L781.6 753.7L782.0 753.8L782.6 754.0L783.1 754.3L783.3 754.5L783.4 754.5L783.2 754.3L783.0 753.8L782.7 752.9L782.3 751.9L781.9 750.6L781.5 749.1L781.1 747.4L780.7 745.6L780.2 743.7L779.6 741.7L779.0 739.7L778.4 737.7L777.6 735.6L776.7 733.5L775.6 731.4L774.4 729.5L773.1 727.6L771.7 725.9L770.1 724.3L768.5 722.9L766.7 721.6L764.9 720.4L763.0 719.4L761.1 718.5L759.1 717.8L757.1 717.2L755.0 716.7L752.9 716.4L750.8 716.1L748.7 716.0L746.6 716.0L744.5 716.0L742.3 716.2L740.2 716.5L738.1 716.9L735.9 717.3L733.8 717.9L731.7 718.5L729.6 719.2L727.6 720.0L725.5 720.9L723.5 721.8L721.5 722.9L719.6 724.0L717.7 725.1L715.8 726.4L714.0 727.7L712.2 729.1L710.4 730.6L708.8 732.1L707.2 733.7L705.6 735.4L704.2 737.2L702.8 739.0L701.5 740.8L700.3 742.8L699.1 744.8L698.1 746.8L697.2 748.9L696.4 750.9L695.7 753.1L695.1 755.2L694.5 757.4L694.1 759.5L693.7 761.7L693.4 763.9L693.2 766.1L693.1 768.3L693.0 770.5L693.0 772.7L693.1 775.0L693.2 777.2L693.4 779.4L693.7 781.6L694.0 783.8L694.3 786.0L694.7 788.2L695.1 790.4L695.6 792.6L696.2 794.7L696.7 796.9L697.3 799.0L698.0 801.2L698.6 803.3L699.4 805.4L700.1 807.4L700.9 809.5L701.6 811.5L702.5 813.6L703.3 815.6L704.1 817.5L705.0 819.5L705.9 821.4L706.8 823.3L707.7 825.1L708.6 827.0L709.6 828.8L710.5 830.5L711.5 832.3L712.5 834.0L713.4 835.7L714.4 837.3L715.4 839.0L716.4 840.6L717.4 842.2L718.4 843.7L719.4 845.3L720.4 846.8L721.4 848.3L722.4 849.7L723.4 851.2L724.4 852.6L725.4 853.9L726.4 855.3L727.4 856.6L728.3 857.9L729.2 859.1L730.0 860.2L730.7 861.3L731.3 862.3L731.7 863.1L732.0 863.9L732.2 864.5L732.3 864.9L732.3 865.1L732.2 865.3L732.1 865.6L732.0 865.9L731.8 866.2L731.4 866.7L731.0 867.2L730.4 867.8L729.7 868.4L728.9 869.1L728.0 869.7L727.1 870.4L726.0 871.0L724.9 871.7L723.8 872.3L722.6 873.0L721.3 873.6L720.0 874.2L718.6 874.7L717.2 875.3L715.7 875.9L714.2 876.4L712.6 876.9L711.0 877.4L709.3 877.9L707.6 878.4L705.9 878.8L704.2 879.3L702.4 879.7L700.6 880.1L698.7 880.5L696.8 880.9L695.0 881.2L693.0 881.6L691.1 881.9L689.2 882.2L687.2 882.5L685.2 882.8L683.2 883.1L681.2 883.4L679.2 883.6L677.2 883.8L675.1 884.1L673.1 884.3L671.1 884.5L669.1 884.6L667.0 884.8L665.0 885.0L663.0 885.1L661.0 885.3L659.0 885.4L657.0 885.5L655.0 885.6L653.1 885.7L651.1 885.8L649.2 885.8L647.2 885.9L645.3 885.9L643.4 886.0L641.4 886.0L639.5 886.0L637.6 886.0L635.7 886.0L633.8 886.0L632.0 886.0L630.1 885.9L628.2 885.9L626.4 885.8L624.5 885.8L622.7 885.7L620.8 885.6L619.0 885.5L617.2 885.4L615.4 885.3L613.6 885.2L611.8 885.0L610.0 884.9L608.2 884.7L606.4 884.6L604.6 884.4L602.9 884.2L601.1 884.0L599.3 883.8L597.6 883.6L595.8 883.4L594.1 883.2L592.4 883.0L590.6 882.7L588.9 882.5L587.2 882.2L585.5 881.9L583.7 881.6L582.0 881.4L580.3 881.1L578.6 880.7L576.9 880.4L575.3 880.1L573.6 879.8L571.9 879.4L570.2 879.1L568.5 878.7L566.9 878.4L565.2 878.0L563.6 877.6L561.9 877.2L560.2 876.8L558.6 876.4L556.9 876.0L555.3 875.6L553.7 875.2L552.0 874.7L550.4 874.3L548.7 873.8L547.1 873.4L545.5 872.9L543.9 872.5L542.2 872.0L540.6 871.5L539.0 871.1L537.3 870.6L535.7 870.1L534.1 869.6L532.5 869.1L530.9 868.5L529.3 868.0L527.6 867.5L526.0 866.9L524.4 866.4L522.8 865.8L521.2 865.3L519.6 864.7L518.0 864.1L516.4 863.5L514.8 862.9L513.2 862.3L511.6 861.7L510.0 861.1L508.4 860.4L506.8 859.8L505.2 859.1L503.6 858.5L502.0 857.8L500.4 857.2L498.8 856.5L497.2 855.8L495.6 855.1L494.1 854.4L492.5 853.7L490.9 853.0L489.3 852.3L487.7 851.6L486.1 850.9L484.5 850.1L482.9 849.4L481.3 848.6L479.7 847.9L478.1 847.1L476.5 846.3L474.9 845.6L473.3 844.8L471.7 844.0L470.1 843.2L468.5 842.4L466.9 841.6L465.3 840.8L463.7 840.0L462.1 839.1L460.5 838.3L458.9 837.5L457.3 836.6L455.7 835.8L454.1 834.9L452.5 834.1L450.9 833.3L449.3 832.4L447.6 831.6L446.0 830.7L444.4 829.8L442.8 829.0L441.2 828.1L439.5 827.2L437.9 826.4L436.3 825.5L434.7 824.6L433.0 823.7L431.4 822.8L429.8 821.9L428.2 821.0L426.5 820.1L424.9 819.2L423.3 818.3L421.6 817.4L420.0 816.5L418.4 815.6L416.7 814.6L415.1 813.7L413.4 812.8L411.8 811.9L410.2 810.9L408.5 810.0L406.9 809.1L405.2 808.1L403.6 807.2L401.9 806.2L400.3 805.3L398.6 804.3L397.0 803.4L395.3 802.4L393.7 801.5L392.0 800.5L390.4 799.6L388.7 798.6L387.1 797.7L385.4 796.7L383.7 795.7L382.1 794.8L380.4 793.8L378.8 792.9L377.1 791.9L375.4 790.9L373.8 790.0L372.1 789.0L370.4 788.0L368.8 787.1L367.1 786.1L365.4 785.1L363.7 784.1L362.1 783.2L360.4 782.2L358.7 781.2L357.0 780.3L355.4 779.3L353.7 778.3L352.0 777.4L350.3 776.4L348.6 775.4L346.9 774.5L345.3 773.5L343.6 772.5L341.9 771.6L340.2 770.6L338.5 769.6L336.8 768.7L335.1 767.7L333.4 766.8L331.7 765.8L330.0 764.9L328.3 763.9L326.6 763.0L324.9 762.0L323.2 761.1L321.5 760.1L319.8 759.2L318.1 758.2L316.4 757.3L314.7 756.4L313.0 755.4L311.2 754.5L309.5 753.6L307.8 752.6L306.1 751.7L304.4 750.8L302.6 749.9L300.9 749.0L299.2 748.1L297.5 747.1L295.8 746.2L294.0 745.3L292.3 744.4L290.6 743.6L288.8 742.7L287.1 741.8L285.4 740.9L283.6 740.0L281.9 739.1L280.1 738.3L278.4 737.4L276.7 736.5L274.9 735.7L273.2 734.8L271.4 734.0L269.7 733.1L267.9 732.3L266.2 731.5L264.4 730.6L262.7 729.8L260.9 729.0L259.1 728.2L257.4 727.4L255.6 726.6L253.9 725.8L252.1 725.0L250.3 724.2L248.6 723.4L246.8 722.6L245.0 721.8L243.2 721.1L241.4 720.3L239.6 719.6L237.9 718.8L236.1 718.1L234.3 717.4L232.5 716.7L230.7 716.0L228.9 715.3L227.1 714.6L225.3 713.9L223.4 713.3L221.6 712.6L219.8 712.0L218.0 711.4L216.2 710.7L214.3 710.1L212.5 709.6L210.7 709.0L208.8 708.4L207.0 707.9L205.1 707.4L203.3 706.8L201.4 706.3L199.6 705.8L197.7 705.4L195.9 704.9L194.0 704.5L192.1 704.1L190.2 703.7L188.4 703.3L186.5 702.9L184.6 702.6L182.7 702.2L180.8 701.9L178.9 701.6L177.0 701.4L175.1 701.1L173.2 700.9L171.3 700.7L169.4 700.5L167.5 700.3L165.6 700.2L163.7 700.1L161.8 700.0L159.8 699.9L157.9 699.9L156.0 699.8L154.0 699.8L152.1 699.8L150.2 699.9L148.2 700.0L146.3 700.1L144.3 700.2L142.4 700.3L140.4 700.5L138.5 700.7L136.5 701.0L134.5 701.2L132.6 701.5L130.6 701.8L128.7 702.2L126.7 702.6L124.7 703.0L122.7 703.4L120.8 703.8L118.8 704.3L116.8 704.9L114.9 705.4L112.9 706.0L110.9 706.6L108.9 707.3L106.9 707.9L105.0 708.6L103.0 709.4L101.1 710.1L99.1 710.9L97.2 711.7L95.2 712.6L93.3 713.5L91.4 714.4L89.5 715.3L87.6 716.2L85.7 717.2L83.9 718.2L82.0 719.2L80.2 720.3L78.4 721.4L76.6 722.5L74.8 723.6L73.1 724.8L71.4 725.9L69.7 727.1L68.0 728.4L66.3 729.6L64.7 730.9L63.1 732.2L61.6 733.5L60.0 734.8L58.5 736.2L57.1 737.6L55.7 739.0L54.3 740.4L52.9 741.8L51.6 743.3L50.3 744.8L49.1 746.2L47.9 747.8L46.7 749.3L45.6 750.8L44.6 752.4L43.5 754.0L42.6 755.6L41.7 757.2L40.8 758.8L40.0 760.5L39.2 762.1L38.5 763.8L37.9 765.5L37.3 767.2L36.7 768.9L36.2 770.6L35.8 772.3L35.5 774.0L35.2 775.8L34.9 777.5L34.8 779.3L34.6 781.0L34.6 782.8L34.6 784.5L34.8 786.3L35.0 788.1L35.2 789.8L35.6 791.6L36.0 793.4L36.4 795.1L36.9 796.9L37.5 798.6L38.1 800.4L38.9 802.2L39.6 804.0L40.5 805.7L41.4 807.5L42.4 809.3L43.4 811.1L44.6 812.9L45.8 814.7L47.0 816.5L48.4 818.3L49.8 820.1L51.4 821.9Z" fill="url(#ouro)"/>
</svg>